# xmcd
#
# Track frame offsets:
#	150
#	12752
#	25560
#	35695
#	50536
#	62584
#	73288
#	82934
#	94043
#	105185
#	117197
#	126892
#	135004
#	146901
#	158555
#	169125
#	181664
#	193727
#	205095
#	214253
#	224880
#	240313
#	251826
#	263478
#	275328
#	286845
#	298132
#
# Disc length: 4147 seconds
#
# Revision: 7
# Processed by: cddbd v1.5.2PL0 Copyright (c) Steve Scherf et al.
# Submitted via: EasyCDDAExtractor 10.0.2.1
#
DISCID=8410311b
DTITLE=Patsy Cline - The Patsy Cline Collection - CD1 - Honky Tonk Merry Go Ro
DTITLE=und
DYEAR=1991
DGENRE=Country
TTITLE0=I'm Walking The Dog [Radio transcription]
TTITLE1=It Wasn't God Who Made Honky Tonk Angels [Radio transcription]
TTITLE2=Turn The Cards Slowly
TTITLE3=A Church  A Courtroom  And Then Goodbye
TTITLE4=Honky Tonk Merry Go Round
TTITLE5=I Love You, Honey
TTITLE6=Come On In (And Make Yourself At Home)
TTITLE7=I Don't Wanta
TTITLE8=Stop  Look And Listen [alt]
TTITLE9=I've Loved And Lost Again
TTITLE10=Yes  I Know Why [Radio transcription]
TTITLE11=For Rent [Radio transcription]
TTITLE12=Walkin' After Midnight
TTITLE13=The Heart You Break May Be Your Own
TTITLE14=Pick Me Up On Your Way Down
TTITLE15=A Poor Man's Roses (Or A Rich Man's Gold)
TTITLE16=Today  Tomorrow And Forever
TTITLE17=Don't Ever Leave Me Again
TTITLE18=Try Again
TTITLE19=Too Many Secrets
TTITLE20=Then You'll Know
TTITLE21=Three Cigarettes In An Ashtray
TTITLE22=That Wonderful Someone
TTITLE23=In Care Of The Blues
TTITLE24=Hungry For Love
TTITLE25=I Can't Forget
TTITLE26=If I Could See The World (Through The Eyes Of A Child)
EXTD=
EXTT0=Radio Transcription\nYEAR: 1954
EXTT1=Radio Transcription\nYEAR: 1954
EXTT2=YEAR: 1955
EXTT3=YEAR: 1955
EXTT4=YEAR: 1955
EXTT5=YEAR: 1956
EXTT6=YEAR: 1956
EXTT7=YEAR: 1956
EXTT8=Previously Unreleased\nYEAR: 1956
EXTT9=YEAR: 1956
EXTT10=Radio Transcription\nYEAR: 1956
EXTT11=Radio Transcription\nYEAR: 1956
EXTT12=YEAR: 1956
EXTT13=YEAR: 1956
EXTT14=YEAR: 1956
EXTT15=YEAR: 1956
EXTT16=YEAR: 1957
EXTT17=YEAR: 1957
EXTT18=YEAR: 1957
EXTT19=YEAR: 1957
EXTT20=YEAR: 1957
EXTT21=YEAR: 1957
EXTT22=YEAR: 1957
EXTT23=YEAR: 1957
EXTT24=YEAR: 1957
EXTT25=YEAR: 1957
EXTT26=YEAR: 1957
PLAYORDER=
